<?xml version="1.0" standalone="no"?>
<!DOCTYPE svg PUBLIC "-//W3C//DTD SVG 20010904//EN"
 "http://www.w3.org/TR/2001/REC-SVG-20010904/DTD/svg10.dtd">
<svg version="1.0" xmlns="http://www.w3.org/2000/svg"
 width="800.000000pt" height="800.000000pt" viewBox="0 0 800.000000 800.000000"
 preserveAspectRatio="xMidYMid meet">
<metadata>
Created by potrace 1.15, written by Peter Selinger 2001-2017
</metadata>
<g transform="translate(0.000000,800.000000) scale(0.100000,-0.100000)"
fill="#3f5895" stroke="none">
<path d="M3665 7294 c-16 -2 -70 -9 -120 -15 -883 -105 -1668 -561 -2210
-1284 -413 -551 -635 -1223 -635 -1922 0 -374 50 -685 164 -1029 162 -484 420
-900 785 -1264 571 -570 1297 -894 2107 -940 556 -31 1095 78 1599 325 365
179 664 401 950 706 469 501 761 1139 847 1854 16 131 16 563 0 690 -18 144
-49 315 -78 430 -296 1188 -1233 2106 -2429 2379 -235 54 -370 68 -670 71
-154 2 -293 1 -310 -1z m575 -75 c586 -55 1145 -276 1629 -646 150 -115 424
-385 540 -532 312 -395 529 -858 625 -1333 47 -233 59 -367 60 -628 1 -258 -8
-369 -50 -595 -239 -1309 -1302 -2341 -2624 -2545 -626 -97 -1276 -3 -1840
266 -344 165 -604 348 -876 619 -222 222 -375 419 -524 680 -356 619 -486
1354 -369 2085 103 642 416 1249 888 1720 672 670 1590 998 2541 909z"/>
<path d="M1863 6167 c-13 -13 -23 -30 -23 -39 0 -9 -4 -20 -10 -23 -23 -14
-10 -73 25 -115 19 -23 35 -48 35 -55 0 -20 16 -27 44 -19 17 4 35 23 54 58
45 82 56 98 80 123 24 26 29 62 10 81 -8 8 -45 12 -102 11 -80 0 -94 -3 -113
-22z"/>
<path d="M2238 6176 c-10 -7 -18 -18 -18 -24 0 -6 -3 -12 -7 -14 -5 -1 -16
-19 -27 -38 -40 -76 -81 -140 -88 -140 -4 0 -8 -4 -8 -10 0 -17 -34 -90 -42
-90 -5 0 -8 -7 -8 -15 0 -8 -4 -15 -10 -15 -5 0 -10 -9 -10 -21 0 -11 -4 -17
-10 -14 -5 3 -10 -3 -10 -14 0 -12 5 -21 10 -21 6 0 10 -6 10 -13 0 -8 11 -24
24 -36 14 -13 30 -36 36 -52 11 -25 18 -29 51 -29 29 0 39 4 39 16 0 8 12 36
26 62 15 26 38 68 51 94 14 25 34 56 44 67 10 11 19 26 19 34 0 8 10 29 23 48
12 19 30 50 39 70 10 19 31 51 47 70 33 37 37 50 21 80 -9 17 -22 19 -98 19
-56 -1 -93 -5 -104 -14z"/>
<path d="M2581 6161 c-12 -16 -21 -32 -21 -36 0 -4 -9 -19 -19 -34 -10 -14
-37 -60 -59 -101 -76 -143 -86 -160 -94 -160 -4 0 -8 -7 -8 -15 0 -8 -4 -15
-10 -15 -5 0 -10 -9 -10 -20 0 -11 -4 -20 -9 -20 -5 0 -13 -10 -17 -22 -3 -13
-15 -35 -25 -50 -11 -14 -19 -32 -19 -40 0 -8 -8 -23 -17 -34 -31 -34 -73
-103 -73 -120 0 -14 12 -32 60 -91 6 -7 10 -17 10 -23 0 -20 28 -40 54 -40 18
0 29 9 40 32 9 17 16 37 16 45 0 7 4 13 9 13 5 0 16 15 25 33 22 42 39 71 48
77 4 3 19 30 33 60 14 30 34 69 44 85 37 59 91 157 91 164 0 4 8 16 18 27 19
23 26 33 82 138 22 42 49 85 60 96 23 23 25 38 6 63 -11 14 -29 17 -104 17
-89 0 -91 -1 -111 -29z"/>
<path d="M2943 6157 c-13 -18 -23 -39 -23 -45 0 -7 -4 -12 -8 -12 -5 0 -17
-17 -28 -37 -45 -84 -77 -139 -105 -179 -15 -23 -46 -75 -67 -116 -48 -90 -65
-121 -72 -128 -9 -9 -51 -85 -57 -102 -3 -10 -9 -18 -14 -18 -5 0 -9 -6 -9
-13 0 -7 -25 -52 -55 -101 -30 -48 -55 -89 -55 -92 0 -2 -11 -22 -25 -44 -30
-47 -32 -94 -6 -112 10 -7 28 -34 39 -59 12 -26 28 -49 37 -53 23 -9 54 14 72
54 8 19 24 51 35 70 10 19 22 43 25 53 3 9 9 17 14 17 5 0 9 7 9 15 0 8 3 15
8 15 4 0 12 10 18 23 18 39 69 131 77 142 17 22 77 128 77 136 0 5 4 9 8 9 5
0 17 20 28 45 10 25 21 45 24 45 4 0 12 16 20 35 8 19 16 35 20 35 3 0 14 17
25 38 10 20 27 48 36 62 9 14 32 54 51 90 66 123 91 165 100 168 4 2 8 12 8
22 0 10 5 22 10 25 7 4 7 13 0 26 -9 17 -22 19 -103 19 l-92 0 -22 -33z"/>
<path d="M4453 6156 c-18 -18 -33 -41 -33 -53 0 -11 -7 -26 -15 -33 -8 -7 -15
-17 -15 -22 0 -5 -6 -15 -12 -23 -7 -7 -22 -25 -33 -41 -11 -15 -34 -46 -50
-68 -17 -23 -40 -56 -50 -73 -11 -18 -23 -33 -27 -33 -4 0 -8 -7 -8 -15 0 -8
-4 -15 -10 -15 -6 0 -9 -3 -8 -7 1 -5 -9 -21 -24 -36 -14 -15 -36 -47 -47 -70
-27 -53 -40 -75 -68 -106 -13 -14 -23 -29 -23 -34 0 -4 -5 -13 -10 -20 -42
-50 -80 -104 -80 -114 0 -7 -4 -13 -8 -13 -4 0 -15 -12 -24 -27 -10 -16 -31
-44 -47 -63 -17 -19 -31 -44 -31 -56 0 -12 -12 -34 -26 -50 -15 -15 -43 -53
-62 -83 -20 -31 -43 -64 -52 -74 -9 -9 -23 -29 -31 -44 -22 -43 -118 -185
-144 -214 -12 -15 -26 -35 -29 -45 -3 -11 -24 -38 -46 -61 -23 -23 -49 -62
-60 -85 -10 -24 -30 -54 -44 -67 -13 -12 -27 -34 -30 -47 -4 -13 -14 -34 -24
-45 -9 -11 -25 -30 -34 -41 -10 -12 -18 -24 -18 -28 0 -5 -7 -10 -15 -13 -11
-5 -12 -1 -4 20 5 14 18 38 29 53 11 16 20 33 20 39 0 6 5 11 10 11 6 0 10 9
10 20 0 10 8 27 18 37 22 22 52 69 52 82 0 12 72 135 82 139 5 2 8 10 8 18 0
8 5 14 10 14 6 0 10 7 10 16 0 8 11 30 25 48 14 18 25 39 25 48 0 8 8 23 18
34 20 21 142 235 142 249 0 4 8 15 19 24 10 9 37 55 61 103 23 48 51 95 61
104 23 20 25 67 5 87 -8 8 -26 34 -39 58 -14 24 -32 48 -40 53 -24 15 -59 -9
-82 -57 -11 -23 -23 -44 -26 -47 -13 -10 -49 -81 -49 -95 0 -8 -4 -15 -10 -15
-5 0 -10 -6 -10 -14 0 -8 -7 -21 -15 -29 -13 -14 -41 -60 -89 -150 -11 -21
-28 -46 -38 -57 -10 -10 -18 -24 -18 -30 0 -6 -11 -28 -25 -50 -14 -22 -25
-44 -25 -50 0 -5 -4 -10 -10 -10 -5 0 -10 -9 -10 -20 0 -11 -3 -20 -7 -20 -5
0 -13 -10 -19 -23 -6 -12 -35 -62 -64 -112 -29 -49 -58 -100 -64 -112 -6 -13
-14 -23 -18 -23 -5 0 -8 -7 -8 -15 0 -8 -4 -15 -10 -15 -5 0 -10 -9 -10 -19 0
-11 -4 -23 -10 -26 -5 -3 -17 -23 -27 -43 -9 -20 -19 -39 -22 -42 -4 -3 -13
-18 -21 -35 -8 -16 -29 -49 -47 -72 -40 -50 -41 -76 -8 -109 14 -14 34 -43 46
-65 24 -49 41 -56 75 -34 29 19 30 20 -31 -70 -22 -33 -43 -61 -47 -63 -5 -2
-8 -9 -8 -16 0 -7 -12 -24 -28 -37 -15 -13 -35 -41 -44 -61 -17 -36 -25 -48
-80 -111 -15 -18 -28 -38 -28 -45 0 -7 -8 -22 -18 -33 -11 -10 -25 -32 -33
-47 -8 -15 -23 -37 -35 -50 -11 -12 -35 -48 -54 -80 -18 -31 -44 -68 -56 -82
-12 -14 -34 -44 -48 -68 -15 -24 -40 -57 -56 -74 -16 -17 -28 -34 -25 -38 2
-4 -8 -21 -23 -38 -16 -17 -35 -44 -42 -59 -8 -16 -33 -53 -56 -83 -23 -30
-49 -73 -58 -94 -9 -21 -27 -48 -40 -60 -13 -12 -38 -48 -56 -81 -18 -33 -43
-68 -54 -77 -31 -26 -33 -28 -73 -88 -20 -30 -40 -57 -44 -60 -4 -3 -15 -24
-24 -48 -10 -23 -20 -42 -24 -42 -4 0 -19 -22 -34 -49 -14 -27 -36 -60 -49
-74 -47 -50 -101 -123 -118 -162 -10 -22 -37 -60 -60 -83 -28 -29 -40 -50 -37
-62 3 -11 -1 -21 -9 -24 -9 -4 -14 -22 -14 -56 l0 -50 785 0 c714 0 785 1 785
16 0 9 11 29 25 46 14 16 25 35 25 42 0 7 16 30 35 50 40 43 55 67 55 92 0 9
8 24 18 33 10 9 32 39 48 66 29 50 37 61 86 118 15 18 28 40 28 49 0 9 6 21
14 25 7 4 20 22 29 38 8 17 27 44 41 60 14 17 26 35 26 42 0 6 11 20 25 31 13
11 30 32 37 48 7 16 27 44 45 63 18 19 43 57 57 85 31 65 55 96 62 79 3 -7 21
-13 40 -13 27 0 45 9 80 42 55 51 59 86 14 128 l-29 28 20 23 c11 13 25 31 29
39 7 12 11 13 21 3 14 -14 79 -18 79 -5 0 4 10 12 22 17 61 28 71 92 22 142
l-25 25 28 33 c25 30 32 32 70 28 97 -12 156 105 88 173 -13 13 -13 17 -1 30
8 8 18 23 21 34 6 20 45 29 45 10 0 -23 59 -9 94 22 31 28 36 38 36 77 0 31
-6 51 -20 66 l-21 22 23 36 c21 33 58 50 58 27 0 -18 49 -11 85 13 19 12 39
33 45 46 9 21 7 29 -20 62 -30 38 -30 39 -14 64 9 15 30 40 46 57 15 16 28 35
28 41 0 6 22 40 48 76 26 36 64 93 84 126 20 33 48 71 62 84 14 14 26 30 26
38 0 7 5 13 10 13 6 0 10 6 10 14 0 8 14 29 31 47 17 18 37 46 46 63 18 36 65
99 76 104 4 2 7 9 7 15 0 10 48 86 61 97 4 3 9 14 13 25 3 11 27 43 54 70 26
28 53 64 60 80 21 46 92 156 127 195 18 19 38 51 46 70 14 36 21 47 52 81 9
10 17 21 17 23 0 3 16 22 35 43 19 21 35 43 35 49 0 6 9 19 20 29 10 9 24 33
30 51 7 19 16 34 21 34 5 0 13 8 17 18 16 41 77 132 92 137 8 3 21 19 29 37 8
18 24 44 36 58 13 14 34 45 48 70 13 25 36 51 50 58 34 17 44 48 21 73 -17 18
-39 19 -798 18 l-781 -1 -32 -32z"/>
<path d="M3280 6128 c-12 -24 -25 -45 -29 -48 -3 -3 -19 -33 -36 -67 -16 -35
-33 -63 -37 -63 -5 0 -8 -7 -8 -15 0 -8 -4 -15 -10 -15 -5 0 -10 -4 -10 -10 0
-5 -15 -33 -33 -62 -18 -29 -39 -66 -47 -83 -8 -16 -23 -43 -34 -60 -11 -16
-38 -63 -60 -105 -21 -41 -47 -87 -57 -102 -11 -14 -19 -31 -19 -37 0 -6 -4
-11 -8 -11 -5 0 -22 -26 -38 -57 -16 -32 -32 -60 -35 -63 -6 -4 -29 -44 -73
-125 -6 -11 -13 -22 -16 -25 -3 -3 -22 -39 -44 -80 -21 -41 -41 -77 -45 -80
-3 -3 -17 -24 -29 -48 -26 -47 -24 -74 5 -109 10 -12 26 -31 36 -42 9 -12 17
-28 17 -36 0 -10 11 -15 35 -15 24 0 35 5 35 15 0 8 5 15 10 15 6 0 10 8 10
19 0 10 11 35 25 55 14 20 25 39 25 42 0 3 9 14 20 26 10 11 22 34 25 49 4 16
10 29 15 29 4 0 13 13 20 29 6 16 19 37 28 47 9 11 35 55 57 99 22 43 51 95
64 115 34 51 68 108 93 160 12 25 25 47 29 50 6 4 28 42 73 125 6 11 13 22 16
25 6 6 23 37 55 97 13 23 31 54 42 70 10 15 29 49 41 74 12 26 29 52 37 59 25
21 17 59 -25 119 -22 31 -40 62 -40 69 0 7 -13 12 -29 12 -24 0 -33 -7 -51
-42z"/>
<path d="M3474 5848 c-9 -17 -26 -48 -37 -67 -27 -48 -68 -122 -81 -146 -6
-11 -13 -22 -16 -25 -3 -3 -13 -21 -23 -40 -22 -45 -57 -104 -66 -110 -10 -9
-41 -67 -41 -80 0 -10 -53 -93 -70 -110 -3 -3 -14 -23 -25 -45 -11 -22 -22
-42 -25 -45 -3 -3 -12 -18 -20 -35 -23 -48 -84 -150 -92 -153 -5 -2 -8 -12 -8
-22 0 -10 -5 -22 -10 -25 -6 -3 -19 -26 -30 -50 -11 -24 -24 -46 -29 -49 -5
-3 -18 -23 -29 -43 -53 -101 -66 -123 -74 -123 -4 0 -8 -17 -8 -37 1 -27 9
-48 30 -73 17 -19 30 -41 30 -50 0 -23 20 -40 47 -40 22 0 62 53 103 135 8 17
21 36 28 43 6 7 12 20 12 28 0 8 3 14 8 14 4 0 14 15 21 33 8 17 30 55 48 84
18 29 33 57 33 63 0 5 3 10 8 10 4 0 15 17 25 38 9 20 22 44 27 52 6 8 34 58
63 111 30 52 62 105 73 117 10 13 19 26 19 30 0 15 40 92 48 92 4 0 7 7 7 15
0 8 5 15 10 15 6 0 10 9 10 20 0 11 4 20 9 20 5 0 14 12 20 28 13 34 44 86 54
90 4 2 7 8 7 13 0 6 16 35 35 65 19 30 35 57 35 60 0 3 9 17 20 31 25 32 25
53 3 79 -25 28 -42 54 -56 87 -9 21 -18 27 -44 27 -26 0 -36 -6 -49 -32z"/>
<path d="M4775 3950 c-40 -20 -65 -56 -65 -94 0 -38 77 -106 119 -106 28 0 78
31 92 57 13 24 1 60 -28 91 -7 7 -13 17 -13 21 0 12 -40 51 -53 51 -7 0 -30
-9 -52 -20z"/>
<path d="M4576 3678 c-25 -29 -46 -57 -46 -63 0 -5 11 -23 25 -39 14 -16 25
-32 25 -36 0 -11 49 -30 76 -30 55 0 114 55 114 106 0 24 -10 42 -42 73 -61
59 -92 57 -152 -11z"/>
<path d="M4923 3693 c-59 -67 -37 -149 47 -181 30 -11 85 7 106 36 14 18 19
82 6 82 -4 0 -25 23 -46 50 -46 61 -69 63 -113 13z"/>
<path d="M4444 3461 c-31 -19 -74 -70 -74 -89 0 -19 30 -69 55 -90 38 -33 84
-29 130 11 32 28 38 39 38 74 0 43 -24 77 -71 102 -29 15 -42 14 -78 -8z"/>
<path d="M4746 3436 c-20 -24 -36 -54 -36 -65 0 -27 41 -91 58 -91 6 0 12 -4
12 -10 0 -5 17 -10 39 -10 30 0 47 8 75 33 30 28 36 40 36 76 0 31 -6 48 -25
66 -13 14 -29 25 -35 25 -5 0 -10 5 -10 10 0 6 -17 10 -39 10 -34 0 -43 -6
-75 -44z"/>
<path d="M5103 3457 c-18 -12 -33 -28 -33 -34 0 -7 -4 -13 -10 -13 -20 0 -11
-74 13 -100 55 -62 110 -66 162 -15 19 20 35 42 35 50 0 16 -111 135 -125 134
-6 0 -25 -10 -42 -22z"/>
<path d="M4300 3233 c-8 -3 -32 -22 -52 -41 -52 -49 -52 -93 -2 -145 29 -30
44 -37 73 -37 64 0 119 77 101 140 -8 29 -54 80 -72 80 -3 0 -12 2 -20 4 -7 3
-20 2 -28 -1z"/>
<path d="M4584 3197 c-49 -51 -58 -74 -40 -102 34 -51 80 -85 116 -85 50 0
110 60 110 110 0 39 -36 90 -64 90 -9 0 -16 5 -16 10 0 6 -17 10 -37 10 -29
-1 -45 -8 -69 -33z"/>
<path d="M4923 3195 c-45 -47 -46 -105 -3 -152 25 -28 37 -33 72 -33 36 0 47
5 68 32 14 17 31 37 38 44 22 23 14 75 -15 100 -16 13 -34 24 -40 24 -7 0 -13
5 -13 10 0 6 -17 10 -37 9 -30 0 -45 -8 -70 -34z"/>
<path d="M5262 3193 c-46 -55 -45 -108 3 -151 45 -41 88 -43 133 -4 38 32 42
67 12 103 -11 13 -33 39 -48 56 -36 43 -62 42 -100 -4z"/>
<path d="M4092 2960 c-68 -64 -67 -110 2 -180 24 -24 82 -26 110 -5 28 22 56
67 56 92 0 36 -29 87 -58 101 -39 18 -85 15 -110 -8z"/>
<path d="M4424 2960 c-10 -12 -27 -28 -36 -38 -33 -31 -19 -73 49 -144 10 -11
31 -18 54 -18 31 0 43 6 68 37 44 53 43 107 -2 151 -41 39 -102 45 -133 12z"/>
<path d="M4746 2943 c-40 -41 -44 -64 -20 -111 21 -43 65 -72 107 -72 50 0 97
57 97 117 0 24 -4 43 -10 43 -5 0 -10 6 -10 13 0 27 -36 47 -82 47 -40 0 -51
-5 -82 -37z"/>
<path d="M5110 2967 c-27 -21 -60 -74 -60 -96 0 -26 41 -91 57 -91 6 0 13 -5
15 -12 6 -17 63 -12 88 9 49 40 60 57 60 95 0 42 -24 88 -46 88 -8 0 -14 5
-14 10 0 14 -82 12 -100 -3z"/>
<path d="M5445 2967 c-33 -38 -55 -78 -55 -97 0 -23 33 -76 60 -97 27 -22 78
-15 110 14 47 41 42 67 -32 176 -14 20 -68 23 -83 4z"/>
<path d="M4249 2699 c-50 -54 -52 -94 -7 -150 29 -36 36 -39 79 -39 42 0 50 4
70 31 29 40 41 97 27 123 -21 40 -69 76 -100 76 -23 0 -40 -11 -69 -41z"/>
<path d="M4615 2723 c-16 -10 -32 -22 -34 -26 -1 -5 -14 -19 -27 -32 -30 -30
-30 -39 -2 -78 63 -88 119 -101 181 -41 50 49 51 94 3 147 -41 45 -80 54 -121
30z"/>
<path d="M4950 2723 c-46 -32 -59 -56 -60 -105 0 -27 5 -48 10 -48 6 0 10 -6
10 -13 0 -27 36 -47 82 -47 36 0 51 6 72 26 14 15 26 33 26 40 0 8 5 14 10 14
6 0 10 17 10 37 0 20 -3 33 -7 30 -3 -4 -11 3 -17 15 -13 26 -72 68 -95 68 -9
0 -28 -8 -41 -17z"/>
<path d="M5270 2701 c-54 -53 -56 -102 -6 -155 29 -30 42 -36 75 -36 37 0 44
4 76 48 44 60 45 90 3 132 -63 61 -95 64 -148 11z"/>
<path d="M5610 2717 c-31 -24 -50 -62 -50 -99 0 -31 7 -45 37 -73 45 -43 83
-45 130 -9 52 40 45 80 -31 171 -21 25 -61 30 -86 10z"/>
<path d="M5138 2476 c-39 -14 -68 -38 -68 -55 0 -6 -4 -11 -10 -11 -19 0 -10
-65 13 -91 31 -35 68 -59 92 -59 11 0 40 17 63 38 36 33 42 44 42 79 0 32 -7
47 -35 76 -40 41 -44 42 -97 23z"/>
<path d="M5793 2476 c-43 -15 -62 -43 -63 -92 0 -35 6 -48 40 -83 48 -50 74
-52 123 -10 44 37 48 72 15 109 -13 14 -29 37 -37 52 -16 32 -36 38 -78 24z"/>
<path d="M4433 2468 c-12 -6 -27 -23 -34 -39 -6 -16 -15 -29 -20 -29 -13 0
-11 -32 3 -61 15 -33 76 -79 103 -79 12 0 40 14 63 32 39 30 42 35 42 83 0 45
-3 53 -34 78 -37 29 -83 34 -123 15z"/>
<path d="M4776 2468 c-56 -32 -83 -101 -53 -138 27 -33 80 -70 101 -70 12 0
41 14 64 31 39 29 42 34 42 78 0 40 -5 52 -33 79 -35 34 -83 42 -121 20z"/>
<path d="M5439 2457 c-31 -27 -49 -58 -49 -86 0 -31 41 -89 72 -102 38 -16 67
-6 111 37 56 55 51 99 -17 152 -37 28 -84 28 -117 -1z"/>
<path d="M4583 2199 c-29 -22 -53 -48 -53 -57 0 -9 10 -36 22 -59 l23 -43 85
0 c82 0 85 1 98 27 6 15 12 44 12 64 0 30 -6 42 -32 63 -18 15 -38 31 -45 36
-23 19 -58 9 -110 -31z"/>
<path d="M4928 2212 c-36 -26 -38 -30 -38 -84 0 -88 -1 -88 99 -88 l87 0 17
38 c30 68 19 97 -55 145 -38 24 -67 21 -110 -11z"/>
<path d="M5265 2205 c-42 -43 -48 -77 -22 -137 12 -28 13 -28 99 -28 85 0 88
1 88 23 0 13 5 28 12 35 9 9 9 20 -1 49 -16 44 -25 54 -70 76 -49 24 -66 21
-106 -18z"/>
<path d="M5620 2222 c-46 -30 -60 -53 -60 -96 0 -85 2 -86 99 -86 l86 0 23 44
24 44 -27 41 c-27 40 -73 71 -104 70 -9 0 -27 -8 -41 -17z"/>
<path d="M5936 2205 c-31 -30 -36 -41 -36 -80 0 -25 5 -45 10 -45 6 0 10 -9
10 -20 0 -19 7 -20 90 -20 l90 0 0 49 c0 46 -4 53 -49 100 -27 28 -56 51 -64
51 -9 0 -31 -16 -51 -35z"/>
</g>
</svg>
